# xmcd CD database file
#
# Track frame offsets:
#	150
#	12010
#	23950
#	50882
#	73268
#	86950
#	109465
#	122958
#	141150
#	152945
#
# Disc length: 2210 seconds
#
# Revision: 0
# Processed by: cddbd v1.5.1PL0 Copyright (c) Steve Scherf et al.
# Submitted via: CDex 1.60beta1
#
DISCID=9808a00a
DTITLE=Various Artist - Isn't It Romantic, Vol. 2
DYEAR=1900
DGENRE=Jazz
TTITLE0=Count Basie and Joe Williams/'S Wonderful
TTITLE1=Sarah Vaughan and Billy Eckstine/Always
TTITLE2=Blossom Dearie/Someone To Watch Over Me
TTITLE3=Ben Webster/When I Fall In Love
TTITLE4=Ella Fitzgerald/Isn't It Romantic
TTITLE5=Gerry Mulligan/My Funny Valentine
TTITLE6=Fred Astaire/The Way You Look Tonight
TTITLE7=Billie Holiday/I've Got A Crush On You
TTITLE8=Johnny Hartman/Unforgettable
TTITLE9=Charlie Parker/I'm In The Mood For Love
EXTD=
EXTT0=
EXTT1=
EXTT2=
EXTT3=
EXTT4=
EXTT5=
EXTT6=
EXTT7=
EXTT8=
EXTT9=
PLAYORDER=
